<?xml version="1.0" standalone="no"?>
<!DOCTYPE svg PUBLIC "-//W3C//DTD SVG 20010904//EN"
 "http://www.w3.org/TR/2001/REC-SVG-20010904/DTD/svg10.dtd">
<svg version="1.0" xmlns="http://www.w3.org/2000/svg"
 width="640.000000pt" height="640.000000pt" viewBox="0 0 640.000000 640.000000"
 preserveAspectRatio="xMidYMid meet">

<g transform="translate(0.000000,640.000000) scale(0.100000,-0.100000)"
fill="#000000" stroke="none">
<path d="M0 5345 c0 -1029 0 -1055 19 -1065 11 -5 25 -26 31 -45 6 -19 16 -35
21 -35 5 0 9 -9 9 -20 0 -11 5 -20 10 -20 15 0 29 -43 39 -112 6 -47 5 -63 -6
-74 -8 -8 -12 -14 -8 -14 3 0 1 -9 -6 -21 -11 -21 -21 -22 -86 -3 l-23 6 0
-411 0 -411 63 0 c112 0 227 -75 285 -185 24 -44 27 -61 27 -150 0 -81 -4
-109 -21 -145 -54 -114 -148 -177 -278 -187 l-76 -6 0 -536 0 -536 63 5 c34 3
67 8 73 12 6 4 58 12 116 18 95 9 217 37 177 39 -9 1 -31 14 -48 30 -33 31
-41 74 -20 112 7 14 7 29 -2 54 -11 31 -10 40 14 89 15 30 27 62 27 70 0 9 7
34 16 56 15 36 15 41 0 55 -27 27 -16 77 20 94 14 6 27 19 31 28 3 10 19 49
35 86 27 63 28 70 14 86 -21 23 -20 43 3 72 10 13 21 35 25 49 4 14 17 47 28
73 19 41 20 52 10 81 -15 41 -9 59 39 114 44 51 60 100 35 114 -23 13 -20 51
5 74 12 10 38 55 58 99 40 86 60 109 88 103 17 -3 72 -73 73 -93 0 -5 -12 7
-27 28 -28 40 -34 38 -47 -16 -4 -19 -3 -26 4 -22 5 3 10 1 10 -4 0 -6 -7 -11
-15 -11 -8 0 -15 -9 -15 -21 0 -11 4 -18 8 -15 5 3 8 -5 8 -16 -1 -17 8 -25
39 -34 43 -12 60 -9 48 9 -4 7 -8 30 -9 52 l-2 40 13 -35 c8 -19 14 -46 14
-59 1 -13 12 -32 25 -42 34 -27 41 -55 22 -84 -16 -24 -15 -27 15 -67 l31 -43
-2 190 c-1 105 -1 261 -1 348 l1 159 29 -24 c34 -27 73 -108 75 -155 l1 -31
-42 35 -43 34 0 -34 c0 -46 17 -94 51 -141 30 -41 38 -96 19 -126 -8 -12 -13
-11 -33 8 -13 12 -27 22 -31 22 -18 0 5 -76 39 -127 29 -44 36 -62 33 -96 l-3
-41 -36 32 -37 32 8 -35 c5 -20 25 -57 45 -83 32 -42 36 -52 33 -98 l-3 -52
-39 31 -39 31 5 -48 c4 -36 14 -56 39 -82 40 -41 43 -53 41 -132 l-2 -43 -47
32 c-34 24 -45 28 -40 15 4 -10 7 -28 7 -41 0 -13 15 -46 34 -74 33 -48 53
-104 47 -126 -2 -5 -4 -16 -4 -22 0 -18 -6 -16 -44 13 -27 20 -33 22 -33 9 0
-24 18 -56 52 -91 25 -27 30 -42 33 -88 1 -31 1 -56 -1 -56 -2 0 -22 16 -44
36 -22 20 -40 32 -40 27 0 -25 26 -82 55 -123 33 -45 58 -140 38 -140 -6 0
-27 11 -47 25 l-36 24 0 -31 c0 -25 11 -43 46 -79 34 -35 47 -56 51 -86 4 -30
2 -41 -10 -46 -10 -4 -18 1 -22 13 -3 11 -20 31 -36 45 -35 29 -107 34 -149
10 -24 -14 -24 -14 23 -15 43 0 53 -5 93 -42 27 -27 46 -55 50 -76 6 -28 2
-37 -32 -69 l-39 -36 -6 51 c-7 57 -28 95 -60 113 -21 11 -21 10 -13 -43 5
-29 9 -77 9 -105 0 -63 -2 -62 121 -31 62 16 81 24 68 29 -17 7 -17 8 4 8 12
1 22 6 22 12 0 7 -12 9 -36 5 -28 -6 -34 -4 -27 6 37 60 60 88 71 88 9 0 10 5
4 17 -19 38 -35 145 -29 201 8 76 22 122 52 167 24 34 25 42 19 114 -5 55 -3
85 6 101 9 18 10 25 1 28 -6 2 -11 8 -11 13 0 6 6 7 13 3 9 -6 10 -4 0 7 -21
22 -14 33 8 13 12 -10 22 -17 23 -14 1 3 8 -1 16 -8 8 -7 31 -23 50 -35 24
-16 38 -34 44 -60 9 -36 11 -37 57 -37 26 0 68 -9 92 -19 52 -22 108 -76 101
-96 -3 -7 0 -24 7 -36 18 -35 49 -169 49 -216 0 -65 -20 -143 -50 -198 l-28
-50 114 0 114 0 -6 27 c-4 22 -2 27 9 22 23 -8 111 34 143 68 l29 31 -30 -22
c-17 -12 -59 -27 -94 -33 -86 -16 -94 -6 -89 117 4 73 9 99 31 140 29 54 58
90 97 119 l25 18 -24 -5 c-17 -4 -21 -3 -13 5 7 7 40 10 79 9 76 -2 129 -27
183 -84 39 -42 39 -56 -1 -23 -35 30 -58 32 -105 10 -68 -33 -110 -103 -85
-143 7 -11 13 -7 24 20 20 47 48 70 95 76 58 8 99 -19 116 -77 8 -25 13 -46
11 -48 -1 -1 -22 6 -46 17 -68 30 -123 31 -138 3 -9 -16 -6 -19 19 -19 15 0
56 -17 92 -39 59 -37 63 -43 66 -79 1 -22 -4 -60 -12 -85 -10 -34 -14 -39 -15
-20 -1 14 -9 37 -19 52 -21 31 -112 118 -112 106 0 -5 20 -48 45 -97 25 -49
45 -99 45 -112 0 -24 1 -24 119 -26 l118 -2 -13 40 c-36 103 -54 382 -56 854
-2 321 2 503 11 635 1 19 3 22 10 10 7 -9 9 -1 6 25 -3 39 8 65 27 65 6 0 5
-7 -2 -15 -9 -11 -9 -15 -1 -15 6 0 14 7 17 15 4 8 11 15 16 15 33 0 128 138
128 186 0 44 9 54 48 49 30 -4 33 -3 19 5 -9 6 -22 8 -29 4 -7 -4 -8 -3 -4 4
4 7 2 12 -5 12 -7 0 -10 2 -8 5 3 2 21 0 39 -5 29 -8 37 -7 58 13 23 21 24 21
37 4 12 -17 14 -17 29 5 9 12 16 20 16 17 0 -4 18 -3 40 1 30 6 40 4 40 -6 0
-7 6 -11 13 -8 7 2 29 -6 49 -20 20 -13 39 -22 42 -18 3 3 6 0 6 -6 0 -7 -8
-13 -17 -13 -10 -1 4 -6 32 -11 90 -17 208 -80 272 -145 70 -72 103 -116 103
-137 0 -9 3 -16 8 -16 4 0 12 -12 19 -27 43 -104 54 -133 62 -173 5 -25 14
-63 20 -85 6 -22 13 -85 17 -140 6 -104 -13 -1078 -23 -1152 l-5 -43 51 0 c28
0 51 4 51 8 0 4 -9 35 -21 67 -18 50 -20 73 -15 140 12 147 50 215 159 286 75
48 129 57 204 34 l56 -18 -38 -12 c-20 -8 -48 -24 -61 -36 -32 -30 -76 -122
-72 -150 5 -37 26 -33 47 9 46 90 97 129 174 133 37 2 52 -2 72 -21 19 -18 22
-26 13 -32 -10 -6 -9 -8 2 -9 8 -1 -3 -5 -25 -9 -71 -15 -151 -50 -191 -84
-37 -32 -38 -35 -25 -60 15 -27 48 -37 38 -12 -13 34 59 86 120 86 47 0 104
-20 129 -45 20 -20 24 -34 23 -82 0 -49 -2 -55 -11 -35 -13 26 -93 67 -162 82
-27 6 -50 9 -52 8 -1 -2 35 -37 82 -78 46 -41 86 -82 89 -91 8 -23 -15 -76
-51 -118 l-28 -34 94 7 c52 5 123 7 157 7 75 -2 74 -4 82 159 l7 115 16 -36
c8 -19 46 -65 83 -101 53 -51 69 -73 74 -103 l6 -38 148 -1 c91 -1 150 -5 155
-11 19 -29 410 -20 399 9 -3 7 16 11 57 10 115 -2 127 -4 120 -15 -10 -17 194
-7 226 11 14 8 31 13 38 11 10 -1 12 4 7 18 -3 12 -3 21 0 21 10 0 69 -43 73
-52 2 -4 12 -8 21 -8 10 0 21 -3 25 -7 4 -4 17 -8 29 -8 12 -1 39 -2 59 -3 29
-2 36 -5 32 -17 -4 -10 0 -15 12 -16 51 -3 78 -9 83 -18 8 -12 101 -28 246
-42 61 -6 129 -13 153 -16 l43 -5 -1 176 c-2 157 -8 203 -23 164 -3 -7 -4 5
-2 27 2 22 3 48 4 58 1 10 5 15 11 12 7 -4 10 565 10 1699 l0 1705 -42 12
c-103 27 -172 81 -220 172 -20 36 -23 57 -23 142 0 92 2 104 28 148 50 86 109
130 210 157 l47 13 0 548 0 549 -1655 0 c-943 0 -1655 -4 -1655 -9 0 -5 7 -14
14 -21 8 -6 20 -36 27 -66 10 -43 10 -65 -1 -109 -13 -54 -55 -115 -78 -115
-7 0 -12 -4 -12 -9 0 -17 -82 -41 -143 -42 -79 -1 -131 13 -190 52 -96 64
-157 168 -157 269 l0 50 -1275 0 -1275 0 0 -1055z m3878 964 c171 -82 266
-268 218 -431 -36 -124 -131 -184 -279 -176 -137 7 -234 69 -293 185 -27 54
-29 66 -29 168 0 94 4 117 24 159 33 71 71 126 87 126 8 0 14 4 14 8 0 4 43 4
96 0 76 -6 109 -14 162 -39z m-2802 -23 c70 -32 144 -109 168 -176 39 -109 7
-233 -81 -310 -64 -56 -116 -74 -218 -75 -82 0 -96 3 -156 33 -74 36 -151 111
-176 170 -37 89 -10 194 70 269 126 118 262 149 393 89z m871 9 c12 -9 25 -31
29 -51 5 -30 2 -40 -22 -65 -40 -42 -92 -56 -132 -35 -28 14 -32 22 -32 55 0
83 94 140 157 96z m3823 -150 c68 -22 143 -94 181 -171 28 -57 32 -74 31 -143
-1 -90 -21 -143 -78 -209 -143 -168 -443 -110 -541 105 -35 77 -37 186 -5 253
74 153 243 221 412 165z m-3561 -169 c31 -8 97 -17 146 -21 110 -9 137 -22
165 -81 18 -37 23 -64 24 -142 1 -85 -2 -102 -22 -133 -12 -20 -29 -42 -37
-49 -18 -15 -67 -5 -63 13 3 17 -12 87 -19 87 -3 0 -14 -11 -25 -25 -14 -18
-29 -25 -52 -25 -28 0 -38 7 -60 40 -31 47 -45 49 -92 13 -36 -27 -110 -41
-158 -29 -13 3 -45 22 -70 41 -36 27 -50 33 -68 26 -13 -5 -21 -12 -18 -17 3
-5 -16 -20 -42 -33 l-48 -23 -42 22 -42 22 -28 -31 c-31 -35 -35 -51 -13 -51
8 0 15 -5 15 -11 0 -6 7 -8 16 -5 8 3 12 2 9 -3 -3 -5 0 -13 6 -16 5 -4 8 -13
5 -21 -3 -8 1 -14 9 -14 8 0 15 3 15 8 0 4 87 8 193 8 105 1 211 5 235 9 31 6
68 2 136 -15 51 -12 99 -26 105 -30 17 -10 30 -75 20 -91 -5 -9 -9 -9 -9 -3 0
17 -41 30 -155 49 -59 10 -120 15 -150 12 -27 -4 -112 -11 -187 -16 -194 -14
-264 -36 -236 -73 11 -15 25 -16 93 -11 52 4 73 9 60 14 -16 6 -13 8 13 8 22
1 31 -3 26 -10 -5 -8 3 -10 27 -6 19 4 82 7 142 8 82 2 107 5 107 16 0 17 37
17 43 1 4 -10 8 -9 16 2 8 11 13 12 19 3 4 -7 19 -16 32 -22 25 -10 25 -10 -5
-11 -21 -1 -8 -7 44 -21 93 -25 111 -35 111 -59 0 -27 -32 -26 -176 5 -64 14
-121 22 -127 18 -7 -4 -96 -13 -199 -19 -103 -7 -196 -18 -207 -24 -24 -12
-28 -40 -7 -40 8 0 16 -5 18 -10 6 -18 333 -14 392 4 46 14 54 14 105 -3 31
-10 81 -30 111 -44 42 -19 49 -26 31 -26 -24 -1 -24 -1 -5 -16 10 -8 14 -15 7
-15 -6 0 -15 -9 -18 -20 -6 -20 -7 -20 -36 4 -38 33 -132 54 -154 36 -12 -10
-76 -15 -235 -19 -224 -6 -262 -13 -232 -43 17 -17 422 -24 451 -9 14 8 27 7
48 -4 15 -8 38 -15 50 -15 13 0 36 -12 53 -27 26 -24 30 -33 24 -60 -3 -18
-10 -30 -14 -28 -5 3 -10 -1 -13 -7 -3 -10 -9 -9 -23 4 -10 9 -32 20 -49 24
-16 3 -38 13 -47 21 -12 11 -30 13 -70 8 -29 -3 -135 -10 -235 -13 -100 -4
-184 -10 -188 -13 -3 -4 2 -20 12 -38 18 -30 19 -31 98 -32 44 0 132 1 195 2
195 5 197 5 219 -15 33 -30 25 -116 -10 -116 -4 0 -12 14 -18 31 l-10 30 -118
-6 c-204 -11 -357 -25 -366 -34 -4 -4 1 -18 11 -31 18 -22 25 -23 225 -28 147
-3 210 -8 217 -17 15 -18 -4 -60 -35 -81 -23 -15 -43 -16 -212 -6 -102 6 -190
9 -194 6 -5 -2 -4 -16 1 -29 5 -14 6 -25 2 -25 -4 0 2 -6 12 -12 37 -21 338
-5 355 19 3 5 23 17 45 28 45 24 216 185 216 204 0 8 6 11 15 7 8 -3 15 -1 15
3 0 5 31 39 70 76 38 38 72 75 75 85 8 24 114 78 153 76 37 -1 37 -3 15 30
-22 34 -22 129 1 172 32 63 113 77 177 31 l29 -20 26 20 c27 21 107 30 118 13
2 -4 -11 -6 -30 -4 -26 3 -34 0 -34 -11 0 -9 -10 -19 -22 -23 -22 -7 -22 -7
-3 -15 18 -7 18 -8 1 -8 -11 -1 -16 -6 -13 -15 3 -8 -1 -17 -10 -20 -8 -4 -13
-13 -9 -21 3 -8 0 -16 -7 -16 -19 -2 74 -17 111 -18 30 -1 32 1 32 32 1 50 33
111 72 135 50 31 123 30 167 -3 l34 -24 42 24 c29 18 55 25 86 23 43 -1 44 -1
7 -5 -26 -3 -42 -11 -50 -26 -6 -12 -18 -27 -27 -34 -13 -10 -13 -12 -2 -13
10 0 7 -6 -7 -19 -12 -10 -22 -21 -22 -25 0 -4 -5 -13 -12 -20 -10 -10 -15 -9
-28 7 -15 19 -17 17 -26 -26 l-11 -45 36 -7 c20 -4 63 -15 95 -26 33 -10 73
-19 89 -19 24 0 28 3 21 18 -4 9 -9 39 -12 66 -12 139 133 225 241 143 30 -23
36 -24 49 -11 20 21 91 29 114 15 18 -11 17 -12 -3 -6 -24 7 -59 -21 -88 -72
-10 -18 -23 -29 -28 -26 -5 3 -3 -5 4 -18 11 -22 11 -23 -4 -10 -21 17 -22 8
-1 -13 14 -15 14 -16 0 -16 -20 0 -20 -14 0 -45 9 -14 14 -25 10 -25 -3 0 -19
21 -35 47 l-30 47 6 -42 c5 -39 3 -45 -31 -77 l-37 -35 35 0 c19 0 56 7 81 15
43 15 47 15 73 -3 41 -30 103 -32 136 -7 19 15 19 16 -6 42 -37 40 -48 66 -48
113 0 96 63 160 158 160 37 0 67 -7 92 -21 l38 -22 36 36 c62 62 156 71 216
21 29 -25 50 -31 50 -14 0 5 18 22 40 36 34 23 48 26 93 22 53 -4 117 -37 117
-59 0 -6 -4 -8 -8 -5 -9 5 -7 -81 3 -122 3 -12 1 -41 -5 -63 -6 -23 -9 -43 -7
-46 3 -2 29 2 58 9 30 8 77 13 104 11 28 -1 75 4 105 12 35 9 92 13 157 12 65
-2 104 0 106 7 7 20 57 -24 84 -73 l27 -48 106 1 c88 1 111 -2 140 -19 35 -19
130 -115 130 -129 0 -5 8 -20 19 -34 28 -41 52 -126 52 -184 0 -98 -30 -143
-126 -187 -95 -44 -98 -50 -68 -113 14 -29 31 -60 38 -68 7 -8 20 -39 29 -69
9 -29 19 -59 24 -65 4 -6 23 -49 41 -96 53 -136 63 -159 78 -171 13 -11 60
-104 82 -161 6 -16 15 -28 21 -28 5 0 10 -8 10 -18 0 -10 6 -26 13 -37 19 -28
65 -153 72 -195 13 -74 -41 -247 -84 -270 -26 -14 -42 -13 -39 3 7 40 -50 288
-73 311 -5 6 -9 17 -9 26 0 24 -57 100 -75 100 -19 0 -40 49 -56 130 -7 36
-15 67 -19 70 -4 3 -11 16 -16 30 -17 47 -69 130 -81 130 -7 0 -12 3 -11 8 0
4 -1 14 -5 22 -9 24 -25 110 -33 170 -12 102 -41 215 -79 305 -7 17 -29 80
-50 140 -20 61 -44 121 -53 135 -9 14 -16 27 -15 30 1 3 -5 11 -13 18 -11 10
-20 1 -54 -50 -22 -35 -45 -80 -51 -102 -13 -49 -35 -84 -59 -91 -10 -3 -31
-37 -50 -83 -17 -42 -51 -113 -75 -157 -25 -48 -51 -117 -65 -172 -21 -87 -30
-107 -84 -180 -13 -18 -31 -62 -40 -99 -9 -37 -25 -79 -35 -93 -33 -47 -131
-290 -137 -338 -6 -52 -64 -237 -71 -229 -2 2 0 20 5 40 16 58 -11 46 -107
-48 -91 -89 -119 -106 -179 -106 -54 0 -93 29 -144 107 -75 113 -87 116 -136
30 -24 -42 -41 -60 -77 -77 -71 -34 -117 -12 -180 86 -34 53 -73 75 -60 34 9
-28 -35 -70 -75 -70 -21 0 -43 12 -72 38 -60 54 -79 104 -83 222 -2 88 -6 105
-32 152 -17 29 -34 68 -38 86 -4 18 -28 61 -55 95 -63 84 -73 104 -114 241
-37 125 -47 142 -113 188 -51 34 -67 63 -82 142 -6 33 -18 67 -27 77 -8 9 -24
41 -35 70 -11 29 -33 71 -49 93 -16 23 -36 66 -46 96 -24 75 -48 107 -91 119
-38 11 -54 7 -52 -12 1 -7 1 -19 0 -27 -1 -12 -3 -12 -10 -2 -6 10 -10 7 -15
-13 -4 -14 -4 -30 -1 -34 2 -5 -6 -38 -19 -75 -18 -50 -36 -78 -74 -113 -37
-35 -53 -60 -61 -93 -7 -25 -16 -56 -21 -70 -5 -14 -19 -61 -31 -105 -12 -44
-27 -91 -34 -105 -16 -31 -102 -138 -151 -188 -46 -47 -62 -84 -74 -174 -13
-89 -40 -144 -98 -200 -87 -84 -95 -93 -112 -133 -10 -22 -21 -65 -25 -95 -8
-68 -21 -105 -52 -147 -20 -27 -31 -33 -61 -33 -55 1 -121 35 -174 91 -57 61
-79 60 -104 -7 -11 -30 -24 -46 -39 -50 -38 -9 -99 30 -135 86 -18 27 -38 50
-45 50 -8 0 -26 -23 -42 -51 -44 -82 -102 -92 -181 -29 -27 22 -55 40 -61 40
-6 0 -25 -16 -42 -35 -26 -28 -40 -35 -69 -35 -38 0 -109 39 -144 78 -11 12
-24 22 -31 22 -18 0 -43 -32 -56 -71 -15 -43 -37 -69 -59 -69 -10 0 -34 18
-53 39 -63 70 -71 207 -17 298 11 19 20 40 20 47 0 8 7 19 15 26 17 14 45 67
45 85 0 7 8 19 18 29 11 9 24 34 31 56 6 22 16 40 21 40 6 0 10 9 10 20 0 11
5 20 10 20 6 0 10 6 10 13 0 7 16 36 35 66 19 29 35 59 35 66 0 7 6 15 14 18
8 3 17 19 21 36 4 17 10 31 15 31 4 0 11 8 14 18 8 20 23 47 54 89 12 17 22
39 22 48 0 10 15 32 33 49 18 17 41 51 52 76 11 25 22 47 25 50 8 8 29 42 42
70 7 14 15 27 18 30 4 3 23 36 44 73 21 38 47 76 57 85 10 9 19 20 19 25 0 12
107 145 169 210 31 32 72 66 91 76 32 17 35 22 32 57 -2 40 -2 64 0 132 1 50
-13 123 -22 117 -12 -8 -78 73 -103 125 -16 34 -22 69 -25 144 -3 70 -1 96 7
92 7 -5 11 6 11 31 0 49 23 132 46 172 28 48 86 71 180 72 61 0 277 15 413 28
7 0 39 -5 70 -13z m-21 -387 c12 0 10 -3 -6 -10 -13 -5 -21 -13 -17 -19 4 -6
-1 -7 -10 -3 -13 5 -14 7 -3 14 10 7 10 9 1 9 -7 0 -13 5 -13 11 0 6 7 8 16 5
9 -3 23 -6 32 -7z m209 -71 c-2 -13 -4 -3 -4 22 0 25 2 35 4 23 2 -13 2 -33 0
-45z m-187 48 c0 -3 -4 -8 -10 -11 -5 -3 -10 -1 -10 4 0 6 5 11 10 11 6 0 10
-2 10 -4z m2695 -180 c-34 -15 -59 -51 -48 -69 5 -9 3 -9 -8 0 -13 11 -15 9
-15 -10 1 -13 -4 -21 -12 -19 -8 1 -11 -1 -8 -6 7 -12 -20 -49 -29 -40 -4 4
-7 23 -8 43 -1 31 6 44 41 76 33 31 49 39 79 39 l38 -1 -30 -13z m301 5 c-3
-5 -15 -7 -25 -4 -10 3 -22 0 -25 -6 -5 -7 0 -9 11 -5 10 3 7 -2 -7 -10 -14
-8 -19 -15 -12 -16 18 0 15 -20 -4 -20 -8 0 -13 -3 -11 -7 4 -9 -24 -37 -41
-40 -15 -4 -16 32 -1 58 14 26 68 59 97 59 13 0 21 -4 18 -9z m-2789 -33 c-3
-8 -6 -5 -6 6 -1 11 2 17 5 13 3 -3 4 -12 1 -19z m2923 -81 c0 -39 -15 -72
-46 -104 -24 -25 -23 -13 2 24 29 43 38 74 32 108 -3 13 -1 22 3 19 5 -3 9
-24 9 -47z m-4529 -218 c45 -11 109 -57 144 -103 71 -94 87 -235 36 -341 -42
-89 -117 -154 -216 -185 -23 -8 -67 -38 -104 -72 -36 -34 -92 -73 -130 -91
-55 -27 -68 -37 -76 -65 -8 -29 -13 -33 -35 -28 -14 2 -38 8 -55 11 -54 11
-135 39 -135 47 0 4 -17 10 -37 14 -35 6 -82 45 -83 67 0 5 -8 16 -18 25 -10
10 -24 34 -31 54 -11 33 -10 43 10 85 12 27 25 83 29 128 15 154 80 243 225
311 44 21 102 53 129 72 118 83 219 103 347 71z m2078 -668 c15 -10 23 -71 9
-71 -4 0 -8 -8 -8 -18 0 -24 -58 -101 -84 -113 -15 -6 1 -8 50 -6 56 1 70 -1
66 -11 -13 -35 -106 -42 -146 -11 -76 60 -73 182 6 225 27 15 87 18 107 5z
m2101 -250 c-10 -40 -22 -76 -26 -79 -8 -8 -1 25 23 106 22 79 25 58 3 -27z
m-2002 -106 c34 -15 69 -36 78 -46 9 -11 22 -19 28 -19 12 0 76 -54 76 -64 0
-3 -12 -1 -26 4 -59 23 -118 8 -191 -47 -31 -23 -35 -23 -75 -9 -24 8 -48 10
-53 6 -6 -5 -20 -8 -30 -6 -38 5 -31 95 10 145 34 39 32 42 -14 20 -72 -35
-103 -100 -82 -174 13 -47 1 -35 -24 24 -18 40 -18 46 -3 87 9 25 11 41 5 37
-61 -38 -74 -83 -47 -160 35 -96 34 -100 -6 -46 -22 29 -42 53 -46 53 -13 0
-9 -51 8 -85 8 -18 26 -43 40 -56 14 -13 24 -33 24 -48 -1 -24 -4 -23 -45 24
-25 27 -48 58 -51 67 -8 28 -21 21 -34 -18 -17 -49 -6 -80 49 -144 26 -30 53
-65 60 -78 11 -21 7 -20 -56 13 -37 19 -68 35 -69 35 -1 0 2 -18 6 -40 4 -22
5 -40 2 -40 -2 0 1 -6 7 -14 7 -9 41 -17 79 -21 37 -4 74 -8 82 -11 13 -3 15
13 13 109 -3 163 2 182 52 233 54 53 97 64 162 39 55 -21 129 -86 148 -129 12
-28 13 -29 14 -8 1 13 -7 37 -16 53 -9 15 -14 31 -10 35 7 7 125 -46 168 -76
28 -20 42 -49 17 -34 -8 5 -7 0 2 -11 18 -21 17 -21 -77 27 l-71 37 8 -30 c9
-30 97 -158 131 -192 23 -21 24 -46 5 -73 -14 -18 -15 -18 -26 10 -14 37 -101
156 -113 156 -6 0 -8 -29 -5 -70 4 -56 13 -86 42 -140 20 -38 36 -76 36 -84 0
-19 -56 -83 -84 -97 -17 -9 -17 -7 3 9 17 13 24 30 24 51 0 32 -50 151 -64
151 -13 0 -29 -62 -29 -109 0 -26 8 -63 19 -83 l18 -37 -48 -20 c-26 -12 -60
-21 -76 -20 -26 0 -26 1 -7 9 12 5 25 13 28 19 8 12 28 182 23 187 -10 10 -92
-75 -107 -112 -29 -67 -29 -87 0 -95 14 -5 4 -6 -25 -2 -65 7 -148 35 -153 51
-3 10 2 10 22 1 31 -15 46 -4 112 84 35 45 40 57 26 57 -17 0 -46 -17 -140
-83 -63 -44 -101 -20 -170 106 -42 76 -44 84 -53 200 -7 99 -6 133 6 182 22
84 66 175 109 222 34 38 127 95 185 114 45 15 135 3 199 -26z m2134 -20 c14
-19 8 -60 -17 -110 -14 -27 -22 -39 -17 -25 4 14 7 53 7 87 0 57 9 73 27 48z
m-55 -117 c-6 -69 2 -72 49 -21 36 39 59 94 50 118 -11 30 15 14 41 -26 31
-47 27 -61 -28 -96 -41 -26 -80 -57 -60 -47 10 5 13 3 8 -9 -3 -8 0 -21 8 -27
24 -20 38 -108 32 -204 -6 -96 -18 -144 -49 -188 l-18 -26 30 -11 c17 -5 30
-7 30 -3 0 4 9 -6 20 -23 12 -17 20 -47 20 -70 0 -42 -5 -52 -31 -72 -13 -11
-15 -6 -11 47 3 44 0 66 -12 85 -25 39 -36 30 -29 -24 5 -47 -9 -115 -28 -126
-5 -4 -18 0 -29 8 -18 13 -19 15 -5 21 21 8 45 67 45 111 0 45 -15 45 -30 1
-17 -51 -32 -60 -69 -41 -20 10 -31 24 -32 38 -1 12 -3 32 -4 44 -2 21 -1 21
26 8 15 -8 38 -15 49 -15 l21 0 -19 28 c-11 15 -41 50 -65 77 -26 28 -42 54
-37 59 5 5 6 15 3 22 -7 19 6 18 29 -3 17 -15 18 -15 18 13 0 16 -13 52 -28
79 -15 28 -25 61 -24 74 l4 25 19 -25 19 -24 0 52 c0 28 -4 63 -10 77 -5 14
-7 33 -3 42 6 15 7 15 20 -2 7 -10 13 -28 13 -41 0 -13 4 -23 9 -23 14 0 31
92 31 168 1 67 1 67 17 38 11 -21 14 -45 10 -88z m229 -173 c24 -109 28 -193
14 -250 -6 -25 -8 -21 -9 25 -1 46 -6 62 -32 93 -17 20 -25 37 -19 37 8 0 10
9 6 25 -7 27 3 32 22 13 18 -18 21 -7 11 46 -10 55 -16 61 -73 77 l-39 11 32
19 c24 14 31 26 32 51 l1 33 15 -35 c9 -19 27 -84 39 -145z m-2079 99 c26 -35
16 -39 -105 -39 -93 1 -124 4 -150 19 -19 9 -31 20 -28 23 9 9 158 22 216 18
37 -3 59 -10 67 -21z m-3125 -206 c-31 -22 -42 -41 -48 -83 -2 -11 -7 -35 -13
-53 -12 -40 10 -100 57 -149 16 -18 26 -33 22 -33 -4 0 -24 18 -43 39 -36 40
-57 93 -57 145 0 58 65 156 104 156 6 0 -4 -10 -22 -22z m5172 -139 c27 -32
36 -99 16 -129 -7 -11 -10 -3 -10 29 0 29 -9 59 -25 88 -30 50 -19 57 19 12z
m-24 -91 c24 -39 25 -93 4 -128 -15 -25 -15 -25 -9 12 5 34 -3 90 -20 131 -12
29 4 19 25 -15z m-2768 -48 c57 -45 65 -163 14 -207 -39 -33 -59 -29 -113 22
-46 43 -48 46 -47 99 0 44 5 61 24 81 29 31 86 34 122 5z m903 -46 c9 -15 12
-23 6 -20 -11 7 -35 46 -28 46 3 0 12 -12 22 -26z m-3168 -20 c-3 -3 -12 -4
-19 -1 -8 3 -5 6 6 6 11 1 17 -2 13 -5z m3192 -51 c0 -21 1 -51 1 -67 1 -38
-26 -66 -62 -66 -27 0 -28 1 -14 16 9 8 16 21 16 28 0 7 8 21 19 32 10 11 21
37 25 57 9 47 14 47 15 0z m-1070 -47 c6 -7 20 -40 31 -72 39 -111 6 -180 -84
-178 -37 1 -38 0 -20 -13 12 -9 31 -12 52 -9 28 4 32 3 22 -9 -6 -8 -9 -19 -5
-25 8 -13 -31 -13 -48 0 -7 5 -28 23 -47 40 -30 27 -32 31 -13 27 28 -6 83 29
100 63 7 14 12 45 11 70 -3 38 -8 48 -37 67 -19 13 -43 23 -55 23 -17 -1 -15
-3 10 -14 38 -17 59 -63 51 -112 -11 -67 -59 -94 -99 -57 -19 17 -19 16 -12
-12 4 -17 13 -43 21 -58 8 -15 11 -33 7 -39 -4 -6 2 -18 12 -26 18 -13 18 -14
-3 -8 -19 6 -23 2 -28 -31 -3 -21 -11 -49 -16 -62 -8 -19 -12 -21 -25 -10 -11
9 -13 23 -8 57 5 35 4 44 -7 40 -24 -8 -29 -57 -9 -91 17 -31 29 -151 30 -311
0 -42 2 -47 15 -36 21 18 45 5 45 -25 0 -30 -24 -43 -45 -25 -13 11 -15 5 -15
-46 0 -38 3 -54 9 -45 12 19 45 6 37 -15 -3 -9 -6 -23 -6 -31 0 -11 -6 -14
-21 -10 -21 6 -21 4 -17 -116 4 -133 10 -156 35 -135 12 10 18 9 29 -7 20 -27
17 -59 -6 -80 -19 -17 -21 -17 -39 -1 -15 14 -23 15 -44 5 -21 -10 -30 -9 -43
2 -9 8 -27 12 -40 11 -13 -2 -29 0 -36 4 -7 5 -27 7 -44 5 -18 -1 -35 2 -39 8
-4 8 -12 8 -26 1 -14 -8 -27 -6 -50 6 -23 11 -34 13 -42 5 -17 -17 -34 -13
-62 14 -25 26 -28 34 -26 70 1 17 -1 17 -13 -5 -8 -14 -12 -28 -10 -32 8 -12
-17 -20 -30 -9 -10 8 -17 7 -26 -4 -13 -16 -42 -20 -53 -8 -7 6 -116 15 -182
15 -16 -1 -37 2 -45 5 -29 11 -95 8 -112 -5 -14 -12 -18 -11 -32 10 -9 14 -15
42 -14 68 1 25 -2 108 -6 185 -3 77 -9 181 -11 230 -3 50 -9 106 -15 125 -6
19 -10 121 -9 225 0 151 -3 198 -15 227 -27 64 -15 131 28 160 20 13 18 -1 -3
-28 -25 -31 -28 -86 -5 -104 8 -8 14 -9 13 -4 -4 14 26 78 44 93 39 31 62 -42
35 -106 -6 -15 -21 -38 -32 -50 -19 -22 -17 -24 17 -27 6 -1 14 -4 17 -8 3 -3
16 0 30 8 l25 15 -25 -7 c-20 -6 -17 0 19 30 33 28 46 34 57 25 7 -6 19 -9 26
-7 7 3 28 -4 47 -14 20 -12 43 -17 57 -14 13 4 26 1 30 -6 5 -7 2 -9 -8 -6 -8
4 -21 2 -29 -3 -9 -7 0 -8 29 -6 24 2 52 11 63 20 22 19 28 1 7 -23 -7 -8 -2
-6 11 5 l24 20 -7 -22 c-5 -14 -3 -23 3 -23 6 0 11 5 11 11 0 5 5 7 11 3 8 -4
9 1 5 17 -7 24 -7 24 8 -1 9 -14 15 -21 16 -15 0 5 5 4 12 -3 7 -7 18 -12 26
-12 8 0 30 -8 49 -17 34 -16 38 -16 65 0 16 9 46 18 66 18 l37 1 -30 8 c-25 6
-19 15 8 11 4 0 7 10 7 24 0 14 5 25 10 25 6 0 8 11 4 28 -15 67 -16 82 -5 82
6 0 11 -11 11 -25 0 -30 20 -77 37 -88 7 -4 13 -15 13 -22 0 -8 3 -14 8 -14
28 5 35 -2 14 -17 -12 -8 -22 -21 -22 -27 0 -7 5 -4 11 6 14 23 48 22 75 -4
16 -15 29 -19 41 -14 10 5 22 7 27 6 5 -1 5 8 2 21 -33 111 10 221 99 250 35
11 72 9 84 -6z m-589 -4 c0 -5 -10 -14 -22 -20 -20 -10 -19 -10 10 -5 39 7 40
-1 7 -63 -28 -53 -31 -76 -11 -93 22 -19 40 -4 67 57 l26 57 12 -29 c25 -63
-17 -136 -80 -136 -41 0 -86 50 -94 104 -10 67 26 131 78 135 4 1 7 -3 7 -7z
m4005 -12 c3 -5 35 -10 71 -10 77 0 78 -1 89 -129 l7 -85 59 -60 c84 -84 102
-137 100 -286 -1 -127 5 -152 56 -219 35 -46 36 -74 5 -97 -13 -10 -10 -18 26
-61 48 -57 54 -94 20 -130 -22 -24 -22 -24 -3 -58 10 -20 34 -53 53 -76 29
-34 34 -45 29 -75 -3 -19 -15 -47 -26 -63 l-20 -28 28 -44 c15 -24 38 -53 49
-63 24 -21 28 -62 11 -110 -9 -26 -7 -39 12 -81 13 -27 32 -77 44 -110 12 -33
25 -69 29 -80 5 -11 -1 -5 -13 13 -12 18 -21 37 -21 43 0 6 -4 8 -9 5 -5 -4
-7 4 -4 15 4 14 0 27 -12 35 -11 8 -15 19 -11 31 4 9 4 14 0 10 -4 -4 -16 0
-26 10 -19 17 -25 39 -8 28 11 -7 12 -3 4 19 -5 13 -10 11 -32 -9 -38 -35
-251 -97 -326 -94 -21 0 -21 1 -1 9 11 5 35 9 53 9 34 1 43 17 15 28 -9 4 20
14 73 25 101 21 168 57 197 106 17 29 18 36 6 65 -8 18 -13 36 -11 40 1 5 -2
6 -7 2 -6 -3 -22 12 -37 35 -15 22 -28 40 -30 40 -1 0 -39 -13 -84 -30 -45
-16 -93 -30 -108 -29 -25 1 -24 2 6 9 18 4 36 11 40 15 4 5 -3 5 -15 2 -13 -3
-26 0 -30 5 -3 6 -1 8 5 4 6 -3 13 -2 17 4 3 5 23 14 44 20 46 12 127 65 148
96 12 19 13 27 3 39 -6 8 -8 20 -4 26 4 8 3 9 -4 5 -7 -4 -12 -1 -12 9 0 8 -7
18 -16 22 -9 3 -13 12 -9 21 3 9 3 13 -1 9 -4 -3 -17 5 -29 20 l-23 26 -30
-22 c-38 -27 -112 -61 -132 -60 -8 0 -3 7 13 15 32 17 36 29 7 21 -35 -9 -22
2 38 32 32 16 80 49 106 73 l49 44 -32 62 c-18 35 -38 65 -45 68 -7 3 -34 -4
-60 -16 -26 -11 -55 -20 -64 -19 -10 0 -2 7 16 15 38 17 43 28 6 14 -57 -22
-45 -7 21 26 93 47 96 51 49 70 -50 21 -49 20 -33 41 8 9 9 14 3 10 -7 -4 -17
-1 -23 7 -9 11 -4 12 29 6 22 -4 40 -4 40 -1 0 4 -10 34 -23 66 -19 50 -28 61
-49 63 -30 4 -50 -21 -107 -131 l-37 -72 -65 3 c-35 2 -68 8 -73 12 -35 34
-54 216 -20 203 20 -7 19 49 -1 88 -10 18 -15 49 -13 79 3 50 10 61 24 38 16
-26 24 33 8 63 -10 21 -14 52 -12 99 2 62 4 68 20 59 16 -8 18 -5 18 23 0 18
-9 48 -21 67 -17 29 -19 38 -8 62 12 30 23 36 34 19z m-2165 -35 c29 -15 70
-60 70 -77 0 -5 -10 -3 -22 3 -12 7 -47 15 -78 18 l-55 7 35 22 c29 18 31 22
14 22 -50 0 -134 -87 -134 -139 0 -38 34 -87 66 -95 36 -9 81 10 99 43 l14 26
1 -36 c0 -39 -25 -70 -73 -88 -39 -15 -77 6 -116 65 -36 55 -39 91 -11 150 39
79 122 114 190 79z m800 -117 c8 3 10 0 5 -8 -6 -9 4 -11 39 -9 l46 4 0 -57
c0 -31 2 -63 6 -71 3 -8 -36 25 -85 72 -67 64 -91 94 -91 112 1 23 2 23 34
-12 18 -19 39 -33 46 -31z m-780 23 c14 -10 35 -36 48 -59 20 -36 22 -46 12
-82 -8 -29 -21 -47 -43 -60 -45 -28 -55 -25 -23 6 61 61 9 194 -75 194 -54 0
-78 -42 -35 -62 33 -15 60 -3 53 23 -3 13 -1 19 6 16 35 -11 6 -78 -40 -92
-51 -15 -86 76 -43 113 41 35 94 36 140 3z m430 -31 c-13 -11 -26 -20 -30 -20
-16 0 -32 -62 -27 -100 3 -22 2 -40 -3 -40 -13 0 -20 28 -20 77 0 36 6 50 29
74 16 16 39 29 52 29 l22 0 -23 -20z m-510 -5 c0 -8 -7 -15 -15 -15 -8 0 -15
7 -15 15 0 8 7 15 15 15 8 0 15 -7 15 -15z m806 -42 c4 -21 7 -43 6 -49 -1 -5
19 -35 44 -65 81 -94 93 -117 98 -194 l5 -70 -26 35 c-15 19 -52 60 -81 90
l-54 55 6 -59 c4 -33 15 -73 25 -90 10 -17 22 -42 26 -56 7 -22 6 -23 -9 -11
-50 42 -1 -61 55 -114 47 -45 59 -76 59 -154 l0 -70 -77 77 -77 77 -4 -32 c-3
-33 34 -119 66 -151 63 -64 82 -100 82 -154 l0 -55 -75 72 -75 72 4 -41 c5
-53 36 -116 85 -169 59 -66 71 -88 71 -135 l0 -44 -77 79 c-71 70 -78 76 -81
54 -8 -57 9 -92 84 -172 l74 -80 0 -67 0 -68 -77 76 -78 75 -3 -35 c-6 -59 16
-108 78 -175 70 -76 75 -90 71 -206 l-1 -36 -80 79 c-79 77 -80 78 -80 48 0
-17 -4 -29 -9 -25 -6 3 -8 168 -6 428 4 403 5 1059 2 1122 -3 73 4 175 12 175
5 0 12 -17 17 -37z m1089 17 c17 -11 38 -20 47 -20 10 0 33 -14 53 -31 31 -27
35 -37 35 -78 0 -26 -5 -52 -11 -58 -7 -7 -7 -27 -1 -64 6 -30 7 -72 3 -94 -3
-22 -4 -74 -1 -115 3 -41 2 -104 -2 -139 -4 -35 -4 -71 0 -80 4 -9 7 -81 7
-160 l0 -144 -35 -18 c-19 -10 -48 -19 -65 -21 -16 -2 -40 -9 -52 -16 -14 -8
-23 -9 -23 -3 0 6 -8 8 -17 5 -10 -3 -7 2 7 11 15 10 18 14 7 11 -12 -4 -17
-2 -14 6 2 7 14 12 25 10 12 -2 22 1 22 6 0 5 24 15 54 22 l55 13 4 46 c3 25
5 215 4 422 -2 355 -3 378 -21 398 -15 16 -22 18 -33 9 -10 -8 -19 -6 -37 11
-13 13 -32 21 -43 19 -10 -2 -23 3 -30 12 -11 13 -12 12 -13 -6 0 -13 -8 -24
-20 -27 -13 -3 -20 -14 -20 -30 0 -13 -7 -30 -15 -37 -13 -10 -15 -9 -15 12 0
51 -49 65 -77 22 -12 -20 -14 -30 -6 -43 9 -14 7 -20 -7 -29 -23 -14 -31 -61
-15 -92 12 -25 12 -142 -1 -206 -3 -18 -1 -41 5 -52 8 -15 6 -30 -7 -63 -12
-32 -13 -44 -4 -47 15 -5 16 -46 1 -73 -7 -14 -7 -29 2 -53 8 -23 9 -38 2 -51
-7 -12 -7 -28 -1 -46 6 -18 6 -43 -1 -71 l-10 -43 3 47 c2 31 0 45 -7 41 -6
-4 -8 0 -4 9 3 9 3 19 0 22 -3 3 -7 153 -9 333 -1 181 -3 333 -5 338 -6 18 22
85 33 79 6 -4 8 1 4 13 -4 13 4 29 30 54 l35 34 18 -24 19 -25 43 37 c49 42
62 45 104 17z m-3015 -25 c0 -16 -31 -63 -45 -69 -13 -5 -12 0 4 23 12 16 21
34 21 40 0 6 5 11 10 11 6 0 10 -2 10 -5z m2506 -42 c14 -9 37 -18 50 -19 28
-3 74 -37 91 -67 15 -26 17 -127 3 -127 -5 0 -14 19 -21 43 -21 79 -26 87 -58
87 -16 0 -31 6 -34 13 -3 9 -9 9 -26 -1 -20 -12 -23 -11 -28 7 -8 29 -43 28
-43 -1 -1 -13 -7 -34 -15 -48 -8 -14 -14 -28 -15 -31 0 -3 25 -4 55 -1 74 6
100 -11 114 -77 6 -30 10 -176 9 -373 -1 -178 -3 -308 -5 -290 -5 37 -23 34
-23 -4 0 -14 -3 -23 -7 -21 -10 6 -34 -19 -26 -27 3 -3 -2 -9 -11 -12 -13 -5
-14 -9 -5 -14 7 -5 -21 -15 -67 -25 -134 -29 -139 -31 -138 -48 1 -10 -2 -17
-7 -17 -14 0 -10 40 5 46 8 3 13 20 13 44 0 22 -2 38 -6 36 -3 -2 -5 25 -5 60
1 62 -12 152 -16 109 -1 -11 -4 -14 -7 -8 -2 7 2 26 10 42 11 23 13 53 7 146
-4 65 -5 137 -2 161 3 29 1 44 -7 44 -6 0 -11 7 -11 16 0 8 5 12 10 9 7 -4 8
7 4 32 -7 48 18 99 63 128 25 16 30 25 26 44 -4 17 -3 22 6 16 9 -5 12 0 9 16
-4 33 -41 37 -62 7 -9 -12 -16 -39 -16 -60 0 -21 -4 -38 -10 -38 -5 0 -10 7
-10 16 0 17 -36 54 -52 54 -5 0 -18 -20 -29 -45 -21 -48 -18 -89 9 -104 13 -7
12 -12 -6 -39 -25 -35 -29 -94 -7 -112 20 -16 19 -41 -2 -79 -17 -29 -17 -32
1 -66 17 -30 17 -39 6 -60 -12 -22 -11 -27 5 -46 19 -20 19 -22 2 -70 -16 -44
-16 -52 -3 -71 13 -18 13 -25 0 -56 -13 -32 -13 -37 2 -53 15 -17 15 -21 -5
-60 l-22 -41 21 -15 c12 -9 20 -25 20 -43 0 -35 -17 -48 -36 -28 -12 12 -15
71 -19 319 -2 167 -5 304 -6 304 -8 0 -5 273 3 283 6 6 7 12 3 12 -4 0 -1 8 6
17 9 11 10 14 2 9 -10 -5 -11 1 -7 26 9 53 11 56 54 78 33 17 47 19 75 11 31
-8 37 -7 50 12 14 20 89 67 108 67 4 0 19 -8 33 -17z m451 -40 c-3 -10 -5 -4
-5 12 0 17 2 24 5 18 2 -7 2 -21 0 -30z m-1198 -49 c-26 -28 -74 -39 -109 -25
l-25 10 30 0 c35 1 89 32 107 61 l13 21 3 -22 c2 -12 -6 -31 -19 -45z m1275
-4 c20 -20 21 -29 20 -303 -1 -338 -5 -456 -13 -461 -3 -2 -27 -7 -53 -11 -41
-6 -48 -5 -48 9 0 12 -6 15 -25 10 -15 -4 -32 -1 -40 6 -8 7 -15 9 -15 5 0 -4
-6 -2 -14 4 -11 9 -15 9 -19 -1 -6 -15 -12 249 -11 477 1 145 3 165 24 210 17
38 32 55 59 68 46 21 107 15 135 -13z m-1546 -31 c2 -5 12 -4 23 2 28 15 91 0
97 -23 3 -13 10 -17 21 -12 9 3 23 8 31 11 19 5 72 -35 64 -48 -3 -6 3 -13 14
-16 25 -6 32 -21 25 -55 -7 -37 -48 -54 -80 -32 -21 13 -24 21 -19 49 6 30 4
34 -24 43 -18 7 -32 7 -35 1 -10 -15 -35 -10 -35 6 0 17 -23 20 -50 5 -14 -8
-30 -6 -56 5 -34 14 -38 14 -49 -1 -8 -12 -14 -14 -19 -6 -11 17 -46 15 -53
-4 -4 -10 -13 -14 -26 -10 -13 3 -33 -4 -53 -19 -38 -29 -45 -58 -49 -200 -1
-55 -6 -121 -10 -147 -6 -41 -5 -47 14 -53 24 -7 28 -43 9 -78 -6 -12 -10 -38
-10 -57 1 -20 -2 -50 -7 -68 -5 -17 -6 -34 -1 -37 4 -3 3 -23 -3 -46 -7 -29
-7 -43 1 -48 6 -3 11 -30 10 -58 0 -28 3 -60 7 -72 13 -42 -39 -87 -70 -61
-19 16 -19 69 -1 89 12 13 13 25 5 56 -21 81 -22 95 -4 115 14 16 15 24 5 54
-8 27 -8 40 0 57 9 16 9 28 1 45 -7 17 -7 32 0 51 7 19 6 35 -2 55 -6 16 -8
42 -4 60 3 18 6 55 5 82 0 26 4 54 10 62 9 10 8 19 -4 36 -20 28 -21 62 -2 77
9 8 12 25 9 55 -5 38 -2 47 26 74 22 23 40 32 63 32 23 0 37 7 46 21 12 18 20
21 55 16 23 -3 51 -1 62 3 22 9 58 3 63 -11z m183 -216 c17 -28 21 -58 27
-205 4 -95 5 -256 2 -358 -5 -146 -3 -187 7 -193 7 -4 13 -17 13 -27 0 -30 17
-24 29 10 12 35 35 39 52 9 12 -23 -1 -69 -20 -69 -5 0 -12 -11 -15 -24 -7
-29 -31 -40 -58 -25 -11 6 -34 8 -52 5 -18 -3 -42 0 -57 8 -18 9 -32 10 -44 3
-12 -6 -30 -5 -55 3 -21 7 -43 9 -49 6 -6 -4 -20 -2 -31 4 -13 7 -26 7 -38 1
-13 -7 -27 -6 -45 4 -16 8 -29 10 -32 4 -8 -12 -42 -12 -50 1 -14 23 -14 58 0
70 11 9 21 9 44 -3 22 -11 41 -13 66 -7 49 11 59 24 13 17 -20 -3 -47 -3 -60
1 l-23 6 22 5 c21 6 22 8 9 32 -15 28 -30 143 -27 199 1 19 3 141 5 270 2 129
4 245 5 257 2 40 47 76 119 94 l66 16 79 -41 c52 -27 85 -52 98 -73z m999 72
c0 -12 -3 -25 -7 -29 -12 -12 -13 -389 -2 -403 6 -6 8 -31 4 -55 -3 -24 -2
-91 4 -150 10 -102 3 -175 -12 -135 -4 10 -12 17 -18 17 -7 0 -5 -9 5 -25 13
-19 13 -23 2 -19 -8 3 -17 12 -20 20 -6 16 -26 19 -26 3 0 -5 5 -7 10 -4 6 3
10 1 10 -4 0 -11 -35 -10 -46 2 -13 13 -26 7 -20 -8 3 -9 -1 -15 -11 -15 -12
0 -13 -3 -3 -15 10 -12 6 -13 -24 -8 -24 4 -36 2 -36 -6 0 -7 -4 -10 -9 -6 -5
3 -12 1 -16 -5 -4 -6 -11 -8 -16 -5 -5 4 -9 2 -9 -4 0 -5 -21 -13 -47 -17 -27
-4 -58 -13 -70 -21 -23 -15 -27 -12 -37 29 -5 24 -3 27 27 33 17 4 36 10 41
13 5 3 21 6 35 8 14 1 45 7 69 13 24 6 48 8 54 5 7 -4 8 -2 4 4 -5 8 1 12 18
12 14 0 28 5 31 11 4 5 12 8 18 6 6 -2 23 2 37 10 l25 13 2 332 c1 183 2 360
2 392 0 53 2 58 15 46 9 -7 16 -22 16 -35z m-2860 16 c0 -23 -21 -62 -30 -56
-11 7 -14 48 -3 58 10 10 33 8 33 -2z m1932 -87 c-3 -17 -7 -22 -12 -13 -9 13
-2 39 10 39 4 0 5 -12 2 -26z m-1937 -45 c9 -13 -3 -59 -14 -59 -5 0 -11 9
-14 21 -10 36 12 65 28 38z m1472 -101 c-2 -18 -4 -4 -4 32 0 36 2 50 4 33 2
-18 2 -48 0 -65z m503 32 c0 -38 -14 -45 -30 -15 -11 20 -11 27 0 40 17 20 30
10 30 -25z m-11 -116 c-12 -28 -13 -28 -17 -6 -5 32 6 58 19 45 6 -6 6 -19 -2
-39z m1540 -39 c-1 -27 -4 -63 -8 -80 l-6 -30 -18 25 c-17 24 -23 93 -11 137
5 19 9 20 25 10 15 -9 19 -23 18 -62z m-1546 -65 c-3 -11 -7 -20 -9 -20 -2 0
-4 9 -4 20 0 11 4 20 9 20 5 0 7 -9 4 -20z m55 -86 c6 -56 -50 -73 -64 -19
-10 39 2 57 33 53 23 -2 29 -9 31 -34z m1559 29 c-4 -3 -2 -12 3 -18 14 -17 1
-47 -19 -43 -23 5 -26 39 -5 55 19 14 32 18 21 6z m-3551 -112 c-2 -55 -17
-91 -37 -91 -14 0 -11 108 3 130 24 38 37 23 34 -39z m3471 -13 c19 -18 23
-19 23 -5 0 10 6 14 14 11 11 -4 10 -12 -5 -43 -10 -20 -21 -49 -24 -64 -8
-32 -13 -33 -31 -9 -14 17 -20 132 -7 132 4 0 17 -10 30 -22z m-1524 -38 c-3
-11 -9 -20 -14 -20 -10 0 -12 24 -2 33 13 13 21 7 16 -13z m7 -97 c0 -30 -17
-50 -31 -36 -8 8 -8 16 0 32 14 26 31 27 31 4z m1394 -197 c-4 -12 -6 -36 -5
-54 2 -33 -13 -72 -28 -72 -10 0 -15 166 -5 182 12 19 46 -31 38 -56z m106 46
c0 -5 -7 -17 -16 -28 -14 -17 -15 -17 -10 -1 3 10 6 23 6 28 0 5 5 9 10 9 6 0
10 -4 10 -8z m-3780 -67 c0 -11 -10 -15 -32 -14 -24 1 -27 3 -10 6 12 2 22 9
22 14 0 5 5 9 10 9 6 0 10 -7 10 -15z m4047 -11 c-3 -3 -12 -4 -19 -1 -8 3 -5
6 6 6 11 1 17 -2 13 -5z m-869 -250 l24 -16 -26 -17 c-14 -9 -44 -37 -67 -62
-32 -35 -39 -39 -34 -20 5 17 4 21 -5 16 -6 -4 -9 -18 -6 -33 3 -15 2 -34 -4
-42 -7 -11 -10 0 -10 40 0 59 15 126 33 148 13 16 60 9 95 -14z m-157 -165
c19 -27 17 -59 -4 -59 -6 0 -8 -3 -5 -6 4 -3 17 0 30 7 20 11 21 10 11 -3 -7
-8 -10 -18 -6 -21 13 -13 -13 -7 -35 9 -25 17 -82 111 -82 134 1 11 4 9 12 -5
14 -23 34 -45 42 -45 4 0 4 26 1 58 l-4 57 10 -49 c5 -27 19 -62 30 -77z m245
59 c9 -17 20 -44 24 -60 l8 -27 -28 21 c-29 21 -83 22 -135 3 l-20 -8 20 17
c20 17 20 17 -5 10 l-25 -6 20 21 c21 22 92 60 112 61 7 0 20 -14 29 -32z
m-23 -118 c34 -20 37 -26 37 -65 0 -47 -15 -68 -25 -35 -8 25 -74 80 -97 80
-9 0 -20 5 -23 10 -3 6 -11 10 -16 10 -6 0 -7 -5 -3 -12 4 -7 3 -8 -4 -4 -19
12 -14 24 16 35 35 13 70 7 115 -19z m-269 -26 c9 -3 13 -11 10 -16 -4 -6 1
-8 14 -4 26 9 36 -18 14 -40 -15 -16 -17 -15 -27 8 -5 14 -16 32 -24 42 -14
17 -12 19 13 10z m1383 -10 c-3 -3 -12 -4 -19 -1 -8 3 -5 6 6 6 11 1 17 -2 13
-5z m-1169 -44 c38 -56 51 -140 21 -140 -4 0 -6 6 -3 14 8 21 -13 89 -41 131
-14 20 -20 35 -13 33 7 -3 23 -19 36 -38z m-3998 26 c0 -3 -4 -8 -10 -11 -5
-3 -10 -1 -10 4 0 6 5 11 10 11 6 0 10 -2 10 -4z m3935 -42 c19 -30 33 -128
13 -102 -11 15 -13 15 -25 0 -13 -15 -13 -14 -8 8 5 24 5 24 -10 -3 -21 -37
-28 -30 -14 12 6 18 9 45 5 61 -5 29 7 42 17 18 3 -8 6 -6 6 5 1 9 -6 17 -14
17 -8 0 -15 4 -15 10 0 16 28 0 45 -26z m575 -42 c10 -30 11 -45 3 -53 -7 -7
-12 -6 -17 6 -4 11 -2 14 6 9 10 -7 -27 53 -42 66 -3 3 -11 16 -19 29 l-13 24
33 -19 c23 -14 39 -33 49 -62z m760 69 c0 -5 -7 -11 -15 -15 -15 -5 -20 5 -8
17 9 10 23 9 23 -2z m-60 -11 c-14 -4 -43 -8 -65 -9 l-40 -1 26 -18 c14 -9 36
-27 49 -39 l24 -23 -40 1 c-62 1 -108 22 -113 50 -3 23 -4 23 -12 4 -7 -19 -8
-19 -8 2 -1 26 14 31 104 36 105 6 102 6 75 -3z m-773 -16 c-3 -3 -12 -4 -19
-1 -8 3 -5 6 6 6 11 1 17 -2 13 -5z m-899 -16 c9 -9 12 -9 12 0 0 10 5 10 20
2 11 -6 20 -15 20 -20 0 -5 5 -21 11 -37 6 -15 9 -29 7 -31 -2 -2 5 -8 15 -13
33 -19 7 -30 -51 -24 -95 11 -160 51 -146 89 8 20 34 29 34 11 0 -8 5 -15 11
-15 5 0 7 5 4 11 -7 11 22 38 41 39 5 0 15 -5 22 -12z m303 -41 c-12 -24 -29
-51 -39 -60 -16 -14 -17 -14 -19 10 0 14 2 22 5 16 4 -6 15 -2 27 10 11 11 14
17 7 13 -15 -9 -72 -17 -72 -11 0 3 15 11 33 18 17 8 41 24 51 36 28 31 31 18
7 -32z m316 -83 c-3 -3 -12 -4 -19 -1 -8 3 -5 6 6 6 11 1 17 -2 13 -5z m-417
-24 c8 -5 11 -10 5 -10 -5 0 -17 5 -25 10 -8 5 -10 10 -5 10 6 0 17 -5 25 -10z"/>
<path d="M4460 5131 c0 -14 -7 -33 -17 -43 -22 -25 -10 -33 27 -18 42 17 43
23 15 56 l-25 29 0 -24z"/>
<path d="M4173 5064 l-22 -34 22 1 c12 1 32 4 44 7 l21 7 -21 26 -22 27 -22
-34z"/>
<path d="M3570 4901 c0 -12 6 -21 15 -21 8 0 15 4 15 9 0 5 -7 14 -15 21 -13
10 -15 9 -15 -9z"/>
<path d="M3577 4833 c-6 -10 10 -220 25 -338 10 -80 27 -296 28 -350 0 -11 1
-29 1 -40 1 -11 1 -31 1 -45 -1 -14 -1 -57 -1 -96 0 -40 -5 -82 -10 -96 -7
-18 -4 -29 10 -46 l18 -23 14 33 c7 18 24 67 37 108 13 41 27 80 31 85 4 6 8
24 7 40 0 17 10 53 22 80 23 53 30 168 11 203 -5 9 -12 38 -16 65 -4 26 -11
50 -16 53 -5 3 -9 13 -9 23 0 9 -9 36 -20 59 -11 22 -20 46 -20 52 0 7 -7 24
-14 38 -16 28 -50 127 -60 175 -6 25 -29 37 -39 20z"/>
<path d="M2659 4613 c-13 -16 -12 -17 4 -4 16 13 21 21 13 21 -2 0 -10 -8 -17
-17z"/>
<path d="M2780 4330 c-6 -11 -8 -20 -6 -20 3 0 10 9 16 20 6 11 8 20 6 20 -3
0 -10 -9 -16 -20z"/>
<path d="M2870 3980 c-29 -29 -40 -48 -40 -70 0 -37 22 -48 53 -26 71 53 116
77 151 83 l39 6 -44 23 c-69 36 -111 32 -159 -16z"/>
<path d="M2712 3625 c0 -16 2 -22 5 -12 2 9 2 23 0 30 -3 6 -5 -1 -5 -18z"/>
<path d="M2566 3362 c-7 -12 27 -74 48 -86 13 -9 33 -2 91 29 l75 40 -32 12
c-38 13 -174 17 -182 5z"/>
<path d="M2373 3293 c-3 -7 -9 -10 -14 -7 -5 3 -9 1 -9 -5 0 -5 -3 -17 -7 -27
-4 -12 -3 -15 6 -10 8 6 10 1 6 -16 -7 -27 12 -57 40 -62 17 -3 21 2 23 26 1
17 12 42 23 56 l20 26 -22 12 c-16 8 -18 13 -8 16 8 3 -1 5 -20 4 -18 -1 -36
-7 -38 -13z"/>
<path d="M2177 3093 c-4 -3 -6 -25 -6 -47 2 -34 3 -36 6 -11 6 37 18 53 46 58
16 3 13 5 -9 6 -17 0 -34 -2 -37 -6z"/>
<path d="M2251 3058 c0 -10 -3 -18 -5 -18 -2 0 -13 -3 -23 -7 -16 -6 -17 -5
-3 12 13 16 13 18 0 13 -20 -6 -19 -28 2 -42 23 -14 41 4 35 35 -3 15 -5 17
-6 7z"/>
<path d="M1360 2950 c-8 -5 -10 -10 -5 -10 6 0 17 5 25 10 8 5 11 10 5 10 -5
0 -17 -5 -25 -10z"/>
<path d="M1438 2948 c7 -7 16 -7 28 0 14 8 13 10 -10 10 -18 0 -24 -4 -18 -10z"/>
<path d="M1536 2932 c-2 -4 -1 -14 4 -21 11 -19 41 -6 34 14 -6 16 -29 20 -38
7z"/>
<path d="M1360 2873 c0 -13 -3 -14 -12 -5 -7 7 -22 12 -35 12 -19 0 -23 -5
-23 -32 -1 -27 -2 -30 -11 -15 -10 16 -11 16 -34 0 -24 -18 -36 -41 -13 -27 6
4 8 3 5 -3 -29 -47 -38 -99 -20 -114 8 -8 13 -35 13 -78 0 -36 5 -86 11 -111
6 -25 12 -88 15 -140 2 -52 4 -102 5 -110 1 -8 1 -35 0 -60 -2 -40 7 -152 12
-156 1 0 17 -4 36 -8 27 -5 32 -3 27 9 -3 9 0 15 9 15 18 0 18 1 4 37 -5 15
-10 90 -10 167 0 110 -3 144 -15 157 -14 16 -10 49 6 49 10 0 3 96 -12 168 -8
37 -8 56 -1 60 5 4 16 25 23 47 15 49 36 74 74 90 35 15 56 10 57 -14 0 -9 3
-11 5 -5 3 7 14 10 24 7 13 -4 20 0 20 10 0 8 -9 17 -20 20 -12 3 -20 14 -20
26 0 25 -37 30 -46 6 -5 -13 -8 -13 -27 0 -28 20 -47 19 -47 -2z"/>
<path d="M1603 2843 c-13 -31 -16 -71 -14 -207 1 -93 4 -173 7 -177 2 -4 6
-92 8 -196 5 -196 12 -273 28 -273 4 0 13 11 18 25 10 25 43 34 55 15 18 -29
25 -4 20 68 -3 42 -7 118 -9 167 -4 97 -18 154 -31 123 -14 -36 -71 -10 -63
28 2 9 11 22 21 28 15 9 22 7 36 -10 16 -20 18 -20 27 -5 9 14 7 80 -9 326 -2
22 -7 48 -11 59 -11 22 -50 66 -60 66 -4 0 -14 -17 -23 -37z m51 -173 c-3 -46
-4 -50 -17 -50 -8 0 -20 11 -27 25 -11 20 -11 27 0 40 19 23 45 14 44 -15z
m-19 -159 c-11 -11 -18 -12 -26 -4 -9 9 -8 19 6 39 l18 28 9 -24 c6 -17 4 -28
-7 -39z m34 -218 c0 -10 -4 -27 -8 -37 -11 -28 -25 -2 -17 30 7 28 26 33 25 7z
m25 -146 c0 -9 -1 -33 -2 -53 -2 -42 -20 -42 -40 0 -12 23 -11 31 3 52 18 27
41 28 39 1z"/>
<path d="M1898 2857 c-7 -7 -24 -20 -37 -30 -22 -15 -25 -15 -36 0 -15 21 -35
9 -35 -22 0 -12 -6 -25 -14 -28 -17 -7 -26 -77 -12 -99 8 -13 7 -26 -1 -49 -8
-20 -9 -38 -3 -49 5 -9 7 -66 5 -126 -3 -85 0 -113 11 -125 11 -13 12 -22 3
-48 -8 -22 -8 -40 -2 -54 6 -13 7 -32 2 -44 -18 -48 -5 -181 19 -205 13 -13
43 -3 40 14 -2 8 13 15 42 19 25 3 38 7 29 7 -13 2 -18 17 -24 66 -4 38 -13
70 -22 77 -13 12 -13 14 2 25 15 11 16 24 10 88 -6 72 -8 75 -33 78 -21 2 -27
8 -27 28 0 18 6 26 25 30 20 4 25 11 23 30 -9 125 -4 249 12 290 10 25 21 49
25 53 16 19 81 25 128 13 l47 -13 1 39 c1 35 -1 38 -20 32 -11 -4 -27 -11 -33
-16 -9 -7 -17 -7 -26 0 -7 6 -23 9 -35 5 -15 -3 -24 0 -28 11 -7 19 -18 20
-36 3z"/>
<path d="M6030 1440 c0 -5 5 -10 10 -10 6 0 10 5 10 10 0 6 -4 10 -10 10 -5 0
-10 -4 -10 -10z"/>
<path d="M3828 1793 c6 -2 18 -2 25 0 6 3 1 5 -13 5 -14 0 -19 -2 -12 -5z"/>
<path d="M4009 1778 c23 -6 37 -6 44 1 8 8 -2 11 -33 10 l-45 -1 34 -10z"/>
<path d="M5062 1900 c0 -14 2 -19 5 -12 2 6 2 18 0 25 -3 6 -5 1 -5 -13z"/>
<path d="M4878 1261 c12 -12 22 -26 22 -31 0 -5 6 -7 14 -4 12 5 13 11 3 31
-6 14 -13 20 -15 14 -3 -8 -9 -8 -25 0 -22 11 -22 11 1 -10z"/>
<path d="M4890 1140 c0 -5 4 -10 9 -10 6 0 13 5 16 10 3 6 -1 10 -9 10 -9 0
-16 -4 -16 -10z"/>
<path d="M5565 1100 c10 -11 20 -20 22 -20 2 0 -2 9 -9 20 -7 11 -17 20 -22
20 -5 0 -1 -9 9 -20z"/>
<path d="M4527 1063 c-4 -3 -7 -11 -7 -17 0 -6 5 -5 12 2 6 6 9 14 7 17 -3 3
-9 2 -12 -2z"/>
<path d="M2714 2720 c-75 -37 -156 -114 -189 -180 -15 -29 -36 -86 -47 -128
-19 -70 -21 -105 -21 -382 0 -331 16 -693 38 -834 8 -49 12 -93 9 -97 -7 -12
55 -27 141 -34 44 -3 114 -10 155 -15 210 -25 331 -28 388 -9 l32 11 0 88 0
87 -89 77 c-49 41 -119 109 -156 151 -37 41 -72 75 -77 75 -5 0 -35 -24 -66
-53 -31 -29 -86 -77 -122 -107 -36 -29 -86 -74 -112 -99 -35 -33 -51 -42 -59
-34 -20 20 -5 46 51 91 116 92 279 237 280 248 0 6 -31 55 -70 109 -38 54 -70
103 -70 109 0 13 65 -58 122 -136 24 -31 45 -57 48 -58 11 0 170 166 234 246
49 60 66 89 66 111 0 34 22 59 41 47 18 -11 5 303 -16 381 -41 154 -136 282
-250 336 -86 41 -178 41 -261 -1z m214 -66 c29 -14 52 -30 52 -35 0 -4 -7 -6
-15 -3 -27 11 -63 -5 -104 -46 -47 -47 -51 -43 -16 18 24 43 20 50 -18 31 -38
-20 -76 -61 -82 -90 -7 -29 11 -109 24 -109 4 0 8 -6 8 -14 0 -8 -6 -12 -12
-10 -19 8 -54 77 -61 123 l-7 42 -18 -28 c-34 -51 -18 -119 37 -162 22 -17 23
-21 9 -21 -16 0 -15 -3 5 -20 37 -32 9 -23 -48 15 -28 20 -52 32 -52 28 -1 -5
-5 -27 -9 -50 -9 -48 -4 -53 62 -53 23 -1 53 -7 67 -15 27 -15 29 -14 -55 -34
-27 -7 -57 -19 -66 -27 -16 -14 -18 -13 -23 13 -14 65 -14 128 -2 211 19 127
52 183 131 225 79 43 124 46 193 11z m95 -89 l18 -25 -36 0 c-43 0 -69 -12
-112 -53 -43 -41 -42 -49 4 -26 37 19 104 24 161 13 71 -14 90 -170 34 -279
-53 -105 -129 -155 -237 -155 -81 0 -93 9 -62 46 24 29 51 103 41 113 -2 3
-34 -24 -69 -59 l-65 -64 -25 24 c-14 13 -25 28 -25 34 0 6 21 19 48 29 63 23
180 111 193 145 6 15 8 42 5 60 -2 17 -3 32 0 32 8 0 56 -32 116 -77 74 -57
88 -56 88 3 0 37 -5 51 -31 76 l-30 31 -109 -7 -109 -7 -7 26 c-5 20 0 37 22
67 54 76 150 103 187 53z m-375 -558 c26 -27 47 -79 55 -132 l7 -40 -15 40
c-24 63 -48 105 -62 105 -7 0 -12 -3 -11 -7 1 -5 -4 -19 -11 -31 -28 -51 -48
-127 -40 -150 13 -35 70 -31 104 9 31 37 45 31 20 -8 -40 -64 -83 -78 -129
-42 -35 28 -53 65 -62 126 -8 60 8 116 39 138 32 22 80 19 105 -8z"/>
<path d="M2956 2252 c8 -26 18 -74 22 -107 l8 -60 38 38 c32 31 37 42 32 65
-6 25 -88 112 -106 112 -4 0 -2 -21 6 -48z"/>
<path d="M2887 2218 c-15 -30 -27 -78 -30 -110 -3 -54 -2 -58 18 -58 42 0 55
29 55 123 0 47 -4 88 -9 92 -5 3 -21 -18 -34 -47z"/>
<path d="M722 2730 c30 -9 58 -33 58 -49 0 -6 4 -11 10 -11 17 0 90 32 90 40
0 13 -76 30 -131 29 -45 -1 -49 -2 -27 -9z"/>
<path d="M855 2649 c-16 -11 -64 -36 -105 -56 -48 -23 -69 -38 -57 -40 9 -3
17 -8 17 -12 0 -3 12 -8 26 -9 37 -3 47 -11 33 -28 -6 -8 -9 -17 -6 -21 4 -3
2 -12 -4 -19 -18 -22 -20 -82 -2 -88 23 -9 98 30 129 67 40 47 67 113 59 145
-5 22 -47 82 -57 82 -2 0 -16 -9 -33 -21z"/>
<path d="M991 2535 c-1 -29 -38 -94 -75 -133 -37 -40 -114 -80 -211 -112 -88
-29 -95 -35 -43 -37 23 -1 45 -8 49 -15 5 -7 9 -8 9 -3 0 6 5 2 11 -9 9 -14 8
-20 -2 -27 -10 -6 -11 -9 -1 -9 6 0 12 -5 12 -11 0 -6 -10 -8 -22 -5 -13 3
-18 3 -11 0 7 -3 17 -20 23 -39 6 -18 17 -36 25 -38 18 -7 117 23 186 58 l56
28 7 161 c4 99 3 172 -3 187 -8 21 -10 21 -10 4z"/>
<path d="M990 2159 c0 -49 -135 -115 -336 -166 -107 -27 -108 -27 -69 -35 40
-9 88 -16 113 -17 6 -1 12 -5 12 -11 0 -5 -8 -7 -17 -3 -16 6 -16 4 1 -15 11
-12 26 -22 35 -22 12 0 12 -3 3 -12 -10 -10 -15 -10 -21 1 -5 8 -11 9 -15 3
-3 -6 1 -18 11 -27 14 -14 14 -18 2 -27 -11 -7 -9 -8 6 -4 11 3 34 8 50 12 32
7 189 85 216 106 18 15 33 195 18 219 -7 12 -9 11 -9 -2z m-250 -229 c0 -5 -4
-10 -10 -10 -5 0 -10 5 -10 10 0 6 5 10 10 10 6 0 10 -4 10 -10z"/>
<path d="M991 1924 c-1 -27 -31 -53 -122 -107 -94 -55 -204 -94 -311 -109 -88
-13 -84 -18 23 -33 28 -4 60 -15 70 -24 11 -9 25 -16 32 -16 7 0 12 -10 11
-23 0 -12 3 -22 8 -22 4 0 9 -12 9 -27 1 -19 3 -22 6 -10 3 13 10 16 21 12 10
-4 44 -9 77 -11 70 -5 139 -18 175 -33 25 -11 25 -11 -5 -9 -63 3 -84 -3 -115
-28 -45 -38 -73 -99 -66 -142 l5 -36 -47 47 c-46 45 -74 58 -87 38 -14 -24
106 -100 139 -88 8 3 17 19 21 36 15 68 100 151 155 151 l25 0 -3 197 c-2 109
-7 212 -12 228 -6 22 -8 24 -9 9z m-221 -328 c0 -11 -19 -15 -25 -6 -3 5 1 10
9 10 9 0 16 -2 16 -4z"/>
<path d="M3198 1877 c-22 -47 -153 -203 -218 -259 l-53 -47 59 -67 c61 -69
223 -224 235 -224 13 0 18 86 21 355 3 237 1 270 -12 273 -10 2 -22 -11 -32
-31z"/>
<path d="M1236 1812 c-4 -18 -5 -36 -2 -39 11 -12 17 5 14 39 l-3 33 -9 -33z"/>
<path d="M1237 1754 c7 -3 9 -13 6 -22 -6 -15 -5 -15 11 -3 13 11 14 16 4 22
-7 5 -17 8 -23 8 -5 0 -5 -3 2 -5z"/>
<path d="M1295 1694 c-44 -58 -26 -136 43 -188 36 -28 37 -12 2 33 -39 48 -50
113 -27 160 20 40 16 39 -18 -5z"/>
<path d="M1412 1684 c-28 -19 -52 -65 -52 -98 0 -42 17 -38 35 9 9 26 32 58
53 75 35 29 36 30 12 30 -14 0 -36 -7 -48 -16z"/>
<path d="M1580 1696 c0 -2 8 -10 18 -17 15 -13 16 -12 3 4 -13 16 -21 21 -21
13z"/>
<path d="M1495 1625 c-54 -29 -84 -61 -85 -90 0 -17 2 -17 13 5 6 14 33 36 60
49 41 20 53 22 87 13 42 -10 48 -5 30 29 -14 26 -48 24 -105 -6z"/>
<path d="M1916 1581 c-48 -28 -53 -80 -13 -157 18 -36 47 -63 47 -45 0 6 -8
23 -17 38 -22 33 -22 108 0 151 10 17 16 32 15 31 -2 0 -16 -8 -32 -18z"/>
<path d="M677 1560 c-3 -11 -1 -20 4 -20 5 0 9 9 9 20 0 11 -2 20 -4 20 -2 0
-6 -9 -9 -20z"/>
<path d="M1214 1532 c22 -26 14 -41 -11 -21 -12 10 -14 10 -9 1 7 -13 106 -66
111 -60 1 2 -23 25 -54 53 -31 27 -47 39 -37 27z"/>
<path d="M3662 1496 c-47 -51 -60 -99 -43 -157 13 -44 58 -102 72 -93 6 3 6
10 1 17 -10 13 -10 12 -18 112 -5 61 -2 76 19 118 13 26 21 47 17 47 -4 0 -26
-20 -48 -44z"/>
<path d="M1495 1510 c-5 -9 -4 -11 3 -6 7 4 12 3 12 -2 0 -5 20 -17 43 -26 24
-9 54 -28 67 -41 29 -31 39 -25 31 17 -5 23 -16 37 -36 47 -42 20 -111 26
-120 11z"/>
<path d="M560 1480 c0 -5 15 -10 33 -9 27 0 29 2 12 9 -28 12 -45 12 -45 0z"/>
<path d="M1412 1478 c-7 -7 -12 -19 -12 -27 0 -11 5 -8 16 7 18 25 15 39 -4
20z"/>
<path d="M645 1470 c3 -5 8 -10 11 -10 2 0 4 5 4 10 0 6 -5 10 -11 10 -5 0 -7
-4 -4 -10z"/>
<path d="M690 1476 c0 -9 39 -13 51 -5 10 6 4 9 -18 9 -18 0 -33 -2 -33 -4z"/>
<path d="M1808 1452 c-16 -62 39 -132 105 -132 20 0 37 2 37 5 0 2 -17 13 -37
24 -48 24 -82 60 -92 97 -7 28 -8 28 -13 6z"/>
<path d="M691 1446 c-9 -10 -30 -13 -76 -10 -36 2 -65 0 -65 -4 0 -14 31 -52
51 -62 14 -8 23 -8 32 3 6 7 28 30 46 50 19 20 32 37 29 37 -3 0 -11 -6 -17
-14z"/>
<path d="M1505 1393 c21 -50 105 -147 117 -135 15 15 -25 83 -76 130 -25 23
-48 42 -51 42 -3 0 2 -16 10 -37z"/>
<path d="M1320 1366 c-30 -23 -67 -61 -83 -83 -26 -40 -27 -44 -13 -75 l14
-33 1 31 c1 17 10 43 21 56 10 14 16 29 12 32 -4 4 -2 6 4 4 11 -3 110 99 103
106 -2 2 -29 -15 -59 -38z"/>
<path d="M3537 1375 c-9 -20 -17 -43 -17 -51 0 -31 33 -84 64 -103 33 -20 106
-35 106 -22 0 4 -18 22 -40 40 -42 34 -66 72 -85 134 l-11 38 -17 -36z"/>
<path d="M1433 1310 c2 -36 11 -81 20 -99 9 -19 17 -40 17 -48 0 -8 12 -13 30
-13 l31 0 -27 45 c-14 25 -37 75 -50 113 l-24 67 3 -65z"/>
<path d="M2007 1343 c-4 -3 -7 -11 -7 -17 0 -6 5 -5 12 2 6 6 9 14 7 17 -3 3
-9 2 -12 -2z"/>
<path d="M549 1325 c-1 -8 -2 -21 -3 -27 -1 -8 12 -14 32 -15 40 -2 45 28 7
45 -33 15 -35 15 -36 -3z"/>
<path d="M1360 1287 c0 -13 -5 -28 -11 -34 -6 -6 -12 -34 -14 -62 -4 -48 -2
-51 19 -51 19 0 22 4 19 24 -4 17 -10 23 -21 19 -12 -5 -14 -1 -9 18 4 13 7
31 7 39 0 13 1 13 10 0 7 -11 10 -4 10 28 0 23 -2 42 -5 42 -3 0 -5 -10 -5
-23z"/>
<path d="M850 1271 c0 -5 -25 -44 -56 -86 -42 -59 -52 -80 -42 -86 45 -29 84
9 104 104 16 76 16 77 4 77 -5 0 -10 -4 -10 -9z"/>
<path d="M678 1258 c-39 -10 -48 -22 -25 -31 21 -8 104 12 118 29 10 12 6 14
-22 13 -19 -1 -51 -6 -71 -11z"/>
<path d="M2020 1233 c0 -16 -3 -52 -6 -80 -7 -51 -6 -53 18 -53 29 0 30 9 16
98 -10 63 -28 85 -28 35z"/>
<path d="M1936 1192 c-37 -39 -47 -55 -38 -64 15 -15 36 3 68 59 38 63 26 65
-30 5z"/>
<path d="M3810 1199 c-45 -74 -98 -137 -154 -181 -30 -24 -55 -46 -55 -49 -2
-13 43 -18 62 -7 33 17 108 91 133 129 17 28 54 126 54 146 0 15 -20 -4 -40
-38z"/>
<path d="M3774 1217 c-3 -9 -15 -19 -27 -23 -12 -4 -27 -12 -34 -20 -19 -18
-111 -27 -163 -15 -69 16 -70 15 -46 -34 19 -42 23 -45 51 -40 84 15 254 120
231 142 -3 3 -8 -1 -12 -10z"/>
<path d="M3877 1148 c-5 -54 -24 -126 -52 -190 -6 -14 -2 -18 16 -18 70 1 89
29 89 132 0 39 -7 72 -20 98 -11 22 -22 40 -24 40 -2 0 -6 -28 -9 -62z"/>
<path d="M1178 1153 c6 -2 18 -2 25 0 6 3 1 5 -13 5 -14 0 -19 -2 -12 -5z"/>
<path d="M84 728 c0 -10 4 -18 8 -18 4 0 8 -5 8 -11 0 -8 -5 -8 -15 1 -8 7
-12 16 -9 21 3 5 -2 9 -10 9 -9 0 -16 -4 -16 -10 0 -5 -4 -10 -10 -10 -5 0 -6
8 -3 18 6 14 4 15 -9 4 -13 -10 -17 -10 -21 0 -3 7 -6 -155 -6 -359 l-1 -373
1158 0 1157 0 -1 142 c-1 198 11 232 69 193 16 -10 22 -24 22 -52 0 -21 3 -40
6 -43 3 -3 2 -39 -2 -80 -4 -41 -8 -94 -8 -117 l-1 -43 2000 0 2000 0 0 325
c-1 317 -2 325 -21 325 -11 0 -22 -6 -25 -13 -2 -7 -17 -12 -32 -11 -38 3 -39
3 -22 14 9 6 10 10 3 10 -6 0 -15 -4 -18 -10 -3 -5 -11 -10 -16 -10 -6 0 -8 4
-4 9 8 14 -82 6 -99 -9 -8 -6 -26 -10 -39 -8 -13 1 -32 -3 -41 -11 -10 -9 -29
-12 -51 -8 -20 3 -34 3 -31 -1 2 -4 -46 -7 -107 -6 -62 0 -116 -1 -121 -4 -6
-3 -34 -4 -64 -3 -39 2 -52 -1 -47 -9 5 -8 -11 -11 -56 -10 -35 0 -86 1 -113
1 -27 0 -52 0 -55 1 -26 3 -51 -4 -46 -12 3 -6 0 -10 -9 -10 -8 0 -23 -3 -33
-7 -16 -6 -16 -5 -4 10 12 15 10 17 -28 17 -41 0 -56 -15 -23 -23 9 -2 -21 -3
-68 -2 -47 1 -152 -5 -235 -12 -128 -12 -330 -28 -467 -38 -78 -5 -74 -4 -58
-15 18 -12 31 -10 -176 -14 -83 -2 -156 -6 -162 -10 -6 -3 -13 -2 -17 4 -4 7
-190 8 -190 1 0 -3 -444 -14 -503 -13 -34 0 -60 -2 -58 -6 2 -4 -19 -7 -47 -6
-29 0 -87 -2 -130 -5 -60 -5 -77 -3 -77 7 0 7 -5 10 -11 6 -6 -3 -84 -8 -172
-10 -319 -8 -327 -9 -332 -22 -2 -6 -12 -12 -22 -11 -11 0 -13 3 -5 6 27 11 9
23 -34 23 -25 0 -43 -4 -39 -9 3 -5 1 -13 -5 -16 -6 -4 -9 -1 -8 5 5 21 -61
30 -121 17 -31 -6 -32 -6 -20 10 13 16 11 16 -14 -1 l-29 -18 7 24 c4 15 3 18
-3 10 -4 -7 -25 -13 -45 -14 -20 -1 -37 -6 -37 -11 0 -6 -3 -7 -7 -3 -4 4 3
16 17 26 l25 19 -40 -9 c-22 -5 -44 -10 -48 -10 -5 0 -5 -5 -1 -11 4 -8 0 -7
-15 1 -13 6 -19 16 -14 23 4 7 0 6 -10 -2 -21 -17 -67 -23 -67 -9 0 11 -42 0
-51 -14 -4 -6 -8 -5 -11 3 -3 9 -35 13 -120 13 -66 1 -114 5 -110 10 3 5 -1 6
-8 1 -20 -12 -100 -15 -100 -4 0 6 -6 7 -12 3 -18 -11 -48 -12 -48 -2 0 4 8 8
17 8 9 0 13 3 10 6 -3 4 -22 -1 -42 -10 -19 -9 -40 -14 -46 -10 -6 3 -105 5
-221 5 -145 -1 -215 2 -224 10 -10 8 -18 8 -27 0 -10 -8 -17 -7 -25 1 -9 9
-12 9 -12 0 0 -7 -9 -12 -20 -12 -11 0 -20 6 -20 13 0 9 -3 8 -9 -2 -7 -11 -9
-11 -13 0 -4 11 -10 11 -31 2 -19 -9 -27 -9 -27 -2 0 8 -5 7 -15 -1 -12 -10
-15 -9 -16 6 0 11 -3 14 -6 7 -2 -7 -14 -13 -25 -13 -17 0 -18 3 -8 15 7 8 9
15 5 15 -4 0 -14 -8 -21 -18 -11 -14 -15 -15 -23 -3 -7 11 -9 11 -14 0 -5 -12
-7 -12 -15 0 -11 16 -32 7 -32 -14 0 -9 6 -12 18 -8 15 5 15 4 -2 -13 -13 -14
-20 -15 -23 -6 -3 6 -17 12 -31 13 -24 0 -25 1 -7 8 11 5 23 7 28 4 4 -2 7 3
7 12 0 12 -6 15 -21 10 -14 -5 -25 -2 -30 6 -6 10 -9 4 -9 -18 0 -25 4 -33 18
-33 14 0 15 -2 2 -10 -9 -6 -17 -5 -22 3 -6 9 -12 7 -22 -6 -7 -9 -19 -17 -27
-17 -22 0 -39 -49 -39 -111 0 -47 -4 -61 -20 -72 -12 -8 -18 -20 -15 -30 4 -8
2 -18 -4 -22 -6 -3 -11 -15 -11 -26 0 -10 -4 -19 -9 -19 -20 0 -41 13 -41 24
0 7 -11 27 -25 46 -14 18 -27 50 -31 69 -14 82 -39 158 -62 186 -14 17 -20 31
-13 33 6 2 11 8 11 13 0 4 -7 6 -15 3 -8 -4 -15 -1 -15 4 0 6 8 13 18 15 13 4
11 5 -5 6 -13 0 -23 -3 -23 -9 0 -5 -4 -10 -10 -10 -5 0 -10 7 -10 15 0 9 -6
12 -17 8 -10 -4 -14 -2 -9 5 3 6 -3 16 -14 22 -11 6 -20 16 -20 23 0 8 4 7 10
-3 8 -12 10 -12 16 3 3 9 15 17 25 17 10 0 19 4 19 9 0 5 13 12 29 16 21 4 28
11 24 22 -4 11 -8 12 -14 2 -5 -8 -9 -2 -11 16 -2 23 -10 31 -35 39 -18 5 -33
13 -33 19 0 5 -6 4 -14 -2 -11 -9 -15 -8 -20 4 -4 13 -10 14 -26 5 -11 -6 -24
-8 -29 -5 -5 3 -12 -1 -14 -7 -4 -10 -6 -10 -6 0 -1 6 -6 12 -12 12 -6 0 -8
-7 -5 -17 4 -10 4 -14 0 -10 -4 4 -13 2 -21 -4 -9 -9 -13 -8 -13 0 0 6 5 11
10 11 18 0 10 15 -13 26 -19 8 -23 7 -23 -8z m146 -8 c0 -5 -5 -10 -11 -10 -5
0 -7 5 -4 10 3 6 8 10 11 10 2 0 4 -4 4 -10z m-170 -39 c0 -6 -4 -13 -10 -16
-5 -3 -10 1 -10 9 0 9 5 16 10 16 6 0 10 -4 10 -9z m180 -1 c0 -5 -4 -10 -10
-10 -5 0 -10 5 -10 10 0 6 5 10 10 10 6 0 10 -4 10 -10z m-200 -50 c0 -5 -4
-10 -10 -10 -5 0 -10 5 -10 10 0 6 5 10 10 10 6 0 10 -4 10 -10z m6203 -9 c4
-4 -6 -6 -23 -3 -16 2 -30 9 -30 14 0 10 39 1 53 -11z m-6 -27 c-3 -3 -12 -4
-19 -1 -8 3 -5 6 6 6 11 1 17 -2 13 -5z m-6062 -14 c-3 -5 -12 -10 -18 -10 -7
0 -6 4 3 10 19 12 23 12 15 0z m50 -9 c-3 -6 -11 -8 -17 -5 -6 4 -5 9 3 15 16
10 23 4 14 -10z m-150 -31 c-3 -5 -12 -10 -18 -10 -7 0 -6 4 3 10 19 12 23 12
15 0z m115 -120 c0 -5 -7 -10 -15 -10 -8 0 -15 5 -15 10 0 6 7 10 15 10 8 0
15 -4 15 -10z m2238 2 c8 -6 2 -9 -18 -9 -20 0 -26 3 -18 9 7 4 15 8 18 8 3 0
11 -4 18 -8z m-1383 -12 c-3 -5 -2 -10 2 -10 30 0 30 -164 0 -194 -13 -14 -16
-13 -21 7 -11 41 -7 182 6 195 15 15 21 16 13 2z m1505 6 c0 -3 -4 -8 -10 -11
-5 -3 -10 -1 -10 4 0 6 5 11 10 11 6 0 10 -2 10 -4z m90 -10 c0 -11 -19 -15
-25 -6 -3 5 1 10 9 10 9 0 16 -2 16 -4z m-1410 -31 c0 -2 -8 -3 -18 -2 -10 0
-19 7 -19 13 0 9 5 10 19 3 10 -5 18 -12 18 -14z m780 -21 c19 -49 12 -108
-15 -134 -20 -19 -27 -21 -40 -10 -8 7 -15 24 -15 39 -1 25 -1 25 -15 7 -15
-19 -15 -19 -15 2 0 13 -7 25 -15 28 -16 7 -21 34 -6 34 5 0 12 10 16 23 6 19
8 19 12 5 7 -26 28 -22 41 7 15 32 40 32 52 -1z m78 -1 c14 -28 0 -117 -19
-121 -13 -2 -16 8 -16 60 0 35 1 66 4 71 7 12 22 8 31 -10z m-827 -37 c-25
-14 -51 -11 -51 5 0 5 17 9 38 9 36 -1 37 -1 13 -14z m2014 -13 c26 -27 26
-31 22 -118 -6 -99 -25 -168 -50 -173 -12 -3 -17 12 -22 73 -5 49 -11 72 -16
64 -6 -10 -9 -6 -9 12 0 18 -8 29 -25 37 -14 6 -25 17 -25 23 0 8 5 7 17 -2
15 -13 16 -11 9 13 -5 22 -1 32 19 50 14 12 25 28 25 35 0 22 28 15 55 -14z
m-88 -165 c-3 -7 -5 -2 -5 12 0 14 2 19 5 13 2 -7 2 -19 0 -25z"/>
<path d="M3191 224 c0 -11 3 -14 6 -6 3 7 2 16 -1 19 -3 4 -6 -2 -5 -13z"/>
<path d="M536 493 c-4 -9 -2 -11 7 -6 6 4 20 6 30 5 9 -2 17 0 17 5 0 14 -49
11 -54 -4z"/>
<path d="M634 484 c3 -9 6 -19 6 -22 0 -9 20 21 20 31 0 4 -7 7 -16 7 -11 0
-14 -5 -10 -16z"/>
</g>
</svg>
